<svg xmlns="http://www.w3.org/2000/svg" width="512" height="512" viewBox="0 0 512 512">
  <defs>
    <linearGradient id="royalBg" x1="0%" y1="0%" x2="100%" y2="100%">
      <stop offset="0%" stop-color="#0a1128"/>
      <stop offset="100%" stop-color="#000411"/>
    </linearGradient>
    <linearGradient id="goldGrad" x1="0%" y1="0%" x2="100%" y2="100%">
      <stop offset="0%" stop-color="#ffe259"/>
      <stop offset="100%" stop-color="#ffa751"/>
    </linearGradient>
  </defs>
  <rect width="512" height="512" fill="url(#royalBg)"/>
  <!-- Gold border -->
  <rect x="20" y="20" width="472" height="472" fill="none" stroke="url(#goldGrad)" stroke-width="3" opacity="0.8"/>
  <rect x="28" y="28" width="456" height="456" fill="none" stroke="url(#goldGrad)" stroke-width="1" opacity="0.5"/>
  <!-- Royal grid lines -->
  <g stroke="url(#goldGrad)" stroke-width="1" opacity="0.3">
    <path d="M 0,64 L 512,64 M 0,128 L 512,128 M 0,192 L 512,192 M 0,256 L 512,256 M 0,320 L 512,320 M 0,384 L 512,384 M 0,448 L 512,448"/>
    <path d="M 64,0 L 64,512 M 128,0 L 128,512 M 192,0 L 192,512 M 256,0 L 256,512 M 320,0 L 320,512 M 384,0 L 384,512 M 448,0 L 448,512"/>
  </g>
</svg>
